<svg viewBox="0 0 84 45" xmlns="http://www.w3.org/2000/svg" xmlns:xlink="http://www.w3.org/1999/xlink" width="84.000000" height="45.000000" fill="none" customFrame="#000000">
	<defs>
		<linearGradient id="paint_linear_0" x1="0" x2="15.1351366" y1="23.8378372" y2="23.8378315" gradientUnits="userSpaceOnUse">
			<stop stop-color="rgb(73,169,255)" offset="0" stop-opacity="1" />
			<stop stop-color="rgb(252,124,217)" offset="1" stop-opacity="1" />
		</linearGradient>
	</defs>
	<rect id="logo" width="84.000000" height="45.000000" x="0.000000" y="0.000000" />
	<path id="Fit" d="M1.86426 20.5532L1.86426 5.53071L10.9254 5.53071L10.9254 7.32994L3.96697 7.32994L3.96697 11.8605L10.145 11.8605L10.145 13.6381L3.96697 13.6381L3.96697 20.5532L1.86426 20.5532ZM13.5074 5.53071L15.6101 5.53071L15.6101 20.5532L13.5074 20.5532L13.5074 5.53071ZM29.3656 5.53071L29.3656 7.35161L24.6399 7.35161L24.6399 20.5532L22.5372 20.5532L22.5372 7.35161L17.8116 7.35161L17.8116 5.53071L29.3656 5.53071Z" fill="rgb(43.9887,50.5617,47.2752)" fill-rule="nonzero" />
	<path id="studio" d="M6.79987 39.4911C9.03375 39.4911 10.1507 38.7269 10.1507 37.1984C10.1507 36.7281 10.0478 36.3313 9.84206 36.008C9.651 35.67 9.38647 35.3834 9.04844 35.1482C8.71042 34.8984 8.32096 34.6853 7.88007 34.5089C7.45387 34.3326 6.99828 34.1562 6.51329 33.9799C5.95482 33.7888 5.42574 33.5757 4.92606 33.3406C4.42638 33.0907 3.99283 32.8041 3.62542 32.4808C3.258 32.1428 2.96407 31.746 2.74362 31.2904C2.53787 30.8348 2.43499 30.2837 2.43499 29.637C2.43499 28.2996 2.89059 27.2562 3.80177 26.5067C4.71296 25.7571 5.96952 25.3824 7.57144 25.3824C8.49732 25.3824 9.33503 25.4853 10.0846 25.691C10.8488 25.8821 11.4072 26.0952 11.76 26.3303L11.0766 28.0718C10.7679 27.8808 10.305 27.6971 9.68775 27.5207C9.08519 27.3297 8.37975 27.2341 7.57144 27.2341C7.15994 27.2341 6.77783 27.2782 6.42511 27.3664C6.07239 27.4546 5.76376 27.5869 5.49923 27.7632C5.23469 27.9396 5.02159 28.1674 4.85993 28.4466C4.71296 28.7111 4.63948 29.0271 4.63948 29.3945C4.63948 29.806 4.72031 30.1514 4.88197 30.4306C5.04363 30.7099 5.27143 30.9597 5.56536 31.1802C5.85929 31.3859 6.19731 31.577 6.57942 31.7533C6.97623 31.9297 7.40978 32.1061 7.88007 32.2824C8.54141 32.5469 9.14397 32.8115 9.68775 33.076C10.2462 33.3406 10.7239 33.6565 11.1207 34.024C11.5322 34.3914 11.8481 34.8323 12.0686 35.3466C12.289 35.8463 12.3993 36.4562 12.3993 37.1764C12.3993 38.5137 11.9069 39.5425 10.9223 40.2626C9.95228 40.9828 8.57816 41.3428 6.79987 41.3428C6.19731 41.3428 5.63884 41.2987 5.12446 41.2106C4.62478 41.1371 4.17654 41.0489 3.77973 40.946C3.38292 40.8285 3.03755 40.7109 2.74362 40.5933C2.46439 40.461 2.24394 40.3508 2.08228 40.2626L2.72158 38.4991C3.0596 38.6901 3.57398 38.9032 4.26472 39.1384C4.95545 39.3735 5.80051 39.4911 6.79987 39.4911ZM25.1903 25.7351L25.1903 27.5869L20.3845 27.5869L20.3845 41.0122L18.2461 41.0122L18.2461 27.5869L13.4404 27.5869L13.4404 25.7351L25.1903 25.7351ZM33.1359 41.3428C32.1365 41.3428 31.2694 41.1885 30.5346 40.8799C29.7998 40.5713 29.1972 40.1524 28.7269 39.6233C28.2566 39.0796 27.9039 38.4403 27.6688 37.7054C27.4483 36.9706 27.3381 36.177 27.3381 35.3246L27.3381 25.7351L29.4764 25.7351L29.4764 35.0821C29.4764 36.6105 29.8144 37.7201 30.4905 38.4109C31.1665 39.1016 32.0483 39.447 33.1359 39.447C33.6796 39.447 34.172 39.3661 34.6129 39.2045C35.0685 39.0281 35.4579 38.7636 35.7812 38.4109C36.1046 38.0582 36.3544 37.6099 36.5308 37.0661C36.7071 36.5077 36.7953 35.8463 36.7953 35.0821L36.7953 25.7351L38.9337 25.7351L38.9337 35.3246C38.9337 36.177 38.8161 36.9706 38.5809 37.7054C38.3605 38.4403 38.0078 39.0796 37.5228 39.6233C37.0525 40.1524 36.4499 40.5713 35.7151 40.8799C34.995 41.1885 34.1352 41.3428 33.1359 41.3428ZM55.1692 33.3626C55.1692 34.6853 54.9634 35.839 54.5519 36.8236C54.1404 37.7936 53.5599 38.6019 52.8104 39.2486C52.0608 39.8805 51.1644 40.3582 50.1209 40.6815C49.0774 40.9901 47.9311 41.1444 46.6819 41.1444C46.0646 41.1444 45.3813 41.115 44.6317 41.0563C43.8969 41.0122 43.2282 40.9166 42.6257 40.7697L42.6257 25.9555C43.2282 25.8086 43.8969 25.7131 44.6317 25.669C45.3813 25.6102 46.0646 25.5808 46.6819 25.5808C47.9311 25.5808 49.0774 25.7424 50.1209 26.0658C51.1644 26.3744 52.0608 26.852 52.8104 27.4987C53.5599 28.1306 54.1404 28.9389 54.5519 29.9236C54.9634 30.8936 55.1692 32.0399 55.1692 33.3626ZM46.8583 39.2706C48.8864 39.2706 50.4001 38.7562 51.3995 37.7275C52.3989 36.684 52.8985 35.2291 52.8985 33.3626C52.8985 31.4961 52.3989 30.0485 51.3995 29.0198C50.4001 27.9763 48.8864 27.4546 46.8583 27.4546C46.2557 27.4546 45.7854 27.4619 45.4474 27.4766C45.1241 27.4913 44.8963 27.506 44.764 27.5207L44.764 39.2045C44.8963 39.2192 45.1241 39.2339 45.4474 39.2486C45.7854 39.2633 46.2557 39.2706 46.8583 39.2706ZM58.3412 25.7351L60.4796 25.7351L60.4796 41.0122L58.3412 41.0122L58.3412 25.7351ZM63.6442 33.3626C63.6442 32.0546 63.8353 30.9009 64.2174 29.9016C64.6142 28.9022 65.1432 28.0718 65.8046 27.4105C66.4806 26.7345 67.2596 26.2274 68.1413 25.8894C69.0378 25.5514 69.9858 25.3824 70.9851 25.3824C71.9698 25.3824 72.8957 25.5514 73.7628 25.8894C74.6446 26.2274 75.4161 26.7345 76.0775 27.4105C76.7388 28.0718 77.2606 28.9022 77.6427 29.9016C78.0395 30.9009 78.2379 32.0546 78.2379 33.3626C78.2379 34.6706 78.0395 35.8243 77.6427 36.8236C77.2606 37.823 76.7388 38.6607 76.0775 39.3368C75.4161 39.9981 74.6446 40.4978 73.7628 40.8358C72.8957 41.1738 71.9698 41.3428 70.9851 41.3428C69.9858 41.3428 69.0378 41.1738 68.1413 40.8358C67.2596 40.4978 66.4806 39.9981 65.8046 39.3368C65.1432 38.6607 64.6142 37.823 64.2174 36.8236C63.8353 35.8243 63.6442 34.6706 63.6442 33.3626ZM65.8928 33.3626C65.8928 34.2885 66.0103 35.1335 66.2455 35.8978C66.4806 36.6473 66.8113 37.2866 67.2375 37.8157C67.6784 38.3447 68.2075 38.7562 68.8247 39.0502C69.4567 39.3294 70.1621 39.469 70.941 39.469C71.72 39.469 72.418 39.3294 73.0353 39.0502C73.6525 38.7562 74.1743 38.3447 74.6005 37.8157C75.0414 37.2866 75.3794 36.6473 75.6145 35.8978C75.8497 35.1335 75.9673 34.2885 75.9673 33.3626C75.9673 32.4367 75.8497 31.599 75.6145 30.8495C75.3794 30.0853 75.0414 29.4386 74.6005 28.9095C74.1743 28.3805 73.6525 27.9763 73.0353 27.6971C72.418 27.4032 71.72 27.2562 70.941 27.2562C70.1621 27.2562 69.4567 27.4032 68.8247 27.6971C68.2075 27.9763 67.6784 28.3805 67.2375 28.9095C66.8113 29.4386 66.4806 30.0853 66.2455 30.8495C66.0103 31.599 65.8928 32.4367 65.8928 33.3626Z" fill="rgb(43.9887,50.5617,47.2752)" fill-rule="nonzero" />
	<path id="S" d="M7.58226 47.6757C5.87772 47.6757 4.35931 46.4462 3.02703 43.9873C1.67515 41.5284 0.764104 38.3864 0.293886 34.5615L2.14537 34.5615C2.59599 37.2936 3.30132 39.4565 4.26135 41.0503C5.24097 42.6895 6.34794 43.5092 7.58226 43.5092C8.34637 43.5092 9.08108 43.1677 9.78641 42.4846C10.5113 41.7561 11.1383 40.777 11.6673 39.5476C12.1963 38.3181 12.6077 36.8838 12.9016 35.2445C13.1955 33.6052 13.3424 31.8749 13.3424 30.0534C13.3424 28.3231 13.2053 26.6838 12.931 25.1356C12.6763 23.5419 12.304 22.1075 11.8142 20.8325C11.3244 19.6486 10.7562 18.6923 10.1097 17.9638C9.46313 17.2352 8.7676 16.8026 8.02309 16.666L8.02309 35.2445L7.37654 35.2445C6.37733 35.2445 5.4173 34.7891 4.49646 33.8784C3.59521 32.9222 2.81151 31.6244 2.14537 29.9851C1.45963 28.3459 0.93064 26.4561 0.558384 24.316C0.186128 22.1758 0 19.9218 0 17.5539C0 15.1861 0.186128 12.9549 0.558384 10.8602C0.950232 8.72005 1.49882 6.83033 2.20415 5.19105C2.90947 3.55177 3.71276 2.27677 4.61401 1.36606C5.53486 0.455355 6.50468 0 7.52349 0C9.24762 0 10.7856 1.20669 12.1375 3.62007C13.4698 6.07899 14.371 9.24371 14.8413 13.1142L12.9898 13.1142C12.5391 10.3821 11.8436 8.21916 10.9032 6.62542C9.88437 4.98614 8.7676 4.1665 7.55287 4.1665C6.76918 4.1665 6.02467 4.50801 5.31934 5.19105C4.63361 5.87408 4.02624 6.83032 3.49725 8.05978C2.96825 9.28924 2.54701 10.7464 2.23353 12.4312C1.93965 14.0705 1.79271 15.7781 1.79271 17.5539C1.79271 20.8325 2.22374 23.6785 3.0858 26.0918C3.96746 28.5963 5.04505 30.1445 6.31855 30.7365L6.31855 12.4312L7.87615 12.4312C8.85577 12.4312 9.78641 12.9093 10.6681 13.8656C11.5497 14.7763 12.3334 16.0513 13.0192 17.6905C13.6853 19.3298 14.2045 21.2195 14.5768 23.3597C14.949 25.4999 15.1351 27.7311 15.1351 30.0534C15.1351 32.4668 14.9392 34.7436 14.5474 36.8838C14.1751 38.9784 13.6363 40.8453 12.931 42.4846C12.2257 44.1239 11.4126 45.3989 10.4917 46.3096C9.57089 47.2203 8.60107 47.6757 7.58226 47.6757Z" fill="url(#paint_linear_0)" fill-rule="evenodd" transform="matrix(-4.37114e-08,1,-1,-4.37114e-08,79.4595,5.29736)" />
</svg>
